<svg xmlns="http://www.w3.org/2000/svg" height="24" viewBox="0 96 960 960" width="24" fill="#FFF"><path d="M200 896q-33 0-56.5-23.5T120 816V336q0-33 23.5-56.5T200 256h560q33 0 56.5 23.5T840 336v480q0 33-23.5 56.5T760 896H200Zm0-80h560V336H200v480Zm80-120h120q17 0 28.5-11.5T440 656v-40h-60v20h-80V516h80v20h60v-40q0-17-11.5-28.5T400 456H280q-17 0-28.5 11.5T240 496v160q0 17 11.5 28.5T280 696Zm280 0h120q17 0 28.5-11.5T720 656v-40h-60v20h-80V516h80v20h60v-40q0-17-11.5-28.5T680 456H560q-17 0-28.5 11.5T520 496v160q0 17 11.5 28.5T560 696ZM200 816V336v480Z"/></svg>